<svg xmlns="http://www.w3.org/2000/svg" viewBox="0 0 512 512">
  <!-- Dark background circle -->
  <circle cx="256" cy="256" r="256" fill="#18181b"/>

  <!-- White icon scaled and centered -->
  <g transform="translate(50, 50) scale(0.84)">
    <path fill="#fff" d="M119.78,346.99c-2.55,0-4.98-1.22-6.5-3.33-11.9-16.56-31.87-50.96-31.87-95.18,0-26.26,4.58-48.73,14.42-70.72,1.8-4.03,6.54-5.84,10.57-4.04,4.03,1.8,5.84,6.54,4.04,10.57-9.01,20.13-13.02,39.93-13.02,64.19,0,34.94,13.97,63.19,24.67,79.71,2.84-3.94,4.93-12.11,2.05-26.96-7.07-36.45-11.11-65.17,1.53-103.03,8.59-25.74,26.56-49.22,49.3-64.43,28.34-18.94,62.6-24.38,99.09-15.72,4.3,1.02,6.96,5.33,5.94,9.63-1.02,4.3-5.33,6.96-9.63,5.94-77.9-18.48-118.79,37.47-129.52,69.64-11.42,34.23-7.81,59.81-1,94.92,3.28,16.91,1.78,29.99-4.45,38.9-5.76,8.24-13.49,9.68-14.36,9.82-.42.07-.84.1-1.26.1Z"/>
    <path fill="#fff" d="M402.64,257.31c-4.42,0-8-3.58-8-8,0-84.9-68.98-156.62-150.64-156.62-39.06,0-76.99,16.31-104.08,44.73-3.05,3.2-8.11,3.32-11.31.27-3.2-3.05-3.32-8.11-.27-11.31,30.09-31.58,72.25-49.7,115.66-49.7s86.33,18.34,118.05,51.65c31.33,32.89,48.58,75.85,48.58,120.97,0,4.42-3.58,8-8,8Z"/>
    <path fill="#fff" d="M243.12,410.55c-54.21,0-94.23-30.63-96.21-32.18-1.91-1.49-3.04-3.76-3.08-6.18-.04-2.42,1.02-4.73,2.87-6.27.72-.63,19.25-17.4,12.92-59.86-1.11-7.45-2.13-14.56-2.99-21.39-.04-.24-.07-.47-.09-.71-4.6-37.02-4.45-65.82,11.15-95.08,21.72-40.74,64-44.24,96.27-29.63,24.54,11.11,67.1,35.51,76.4,74.05,8.76,36.32-14.06,73.44-61.05,99.31-21.93,12.07-42.85,16.61-62.19,13.49-14.5-2.33-28.07-9.24-38.22-19.45-.68-.69-1.35-1.39-2-2.12-.34,22.93-7.57,37.76-13.24,45.9,13.02,8.14,43.16,24.04,79.92,24.05,9.14,0,18.69-.98,28.49-3.31,34.34-8.16,59.36-24.92,74.36-49.79,24.9-41.28,15.62-92.31,10.47-112.33-13.61-52.93-51.18-79.1-51.56-79.36-3.64-2.49-4.59-7.46-2.11-11.11,2.48-3.65,7.44-4.6,11.09-2.13,1.74,1.18,42.89,29.59,58.07,88.62,5.65,21.98,15.77,78.11-12.26,124.58-17.31,28.69-45.69,47.9-84.36,57.09-11.3,2.69-22.24,3.82-32.66,3.82ZM172.37,281.71c.94,3.21,6.93,22.65,17.87,33.66,9.27,9.33,35.76,28.3,81.35,3.22,20.75-11.42,36.5-25.24,45.54-39.97,8.43-13.73,11.01-27.71,7.67-41.57-7.99-33.12-49.83-55.25-67.45-63.22-23.6-10.69-57.55-11.19-75.55,22.58-13.57,25.46-13.75,50.77-9.44,85.31Z"/>
    <path fill="#fff" d="M264.29,375.25c-3.3,0-6.38-2.05-7.54-5.34-1.47-4.17.71-8.74,4.88-10.21,53.12-18.77,72.03-52.55,72.21-52.89,2.11-3.87,6.96-5.32,10.83-3.23s5.34,6.91,3.26,10.8c-.86,1.6-21.64,39.44-80.98,60.41-.88.31-1.78.46-2.67.46Z"/>
    <path fill="#fff" d="M221.84,311.02c-2,0-3.82-.22-5.49-.67-19.98-5.38-21.54-30.35-22.67-48.58l-.07-1.06s0-.06,0-.09c-.08-1.57-1.85-38.61,7.37-58.15,3.18-6.73,8.32-11.24,14.86-13.07,16.99-4.73,40.24,9.4,64.57,25.58,17.95,11.94,26.47,22.89,26.8,34.48.28,9.73-5.34,18.78-17.18,27.65-12.2,9.15-25.84,17.84-37.42,23.86-12.96,6.73-23.11,10.05-30.77,10.05ZM209.59,259.75l.06,1.02c.83,13.39,1.98,31.73,10.86,34.12,6.81,1.83,32.5-10.02,59.92-30.59,7.27-5.45,10.9-10.3,10.78-14.4-.11-3.97-3.61-10.94-19.66-21.61-13.01-8.65-40.08-26.65-51.42-23.49-1.38.38-3.15,1.24-4.69,4.48-6.22,13.17-6.34,40.84-5.86,50.46Z"/>
  </g>
</svg>